<?xml version="1.0" encoding="UTF-8"?>
<svg version="1.1" xmlns="http://www.w3.org/2000/svg" width="640" height="255">
<path d="M0 0 C3.44955334 1.27800516 6.38090029 2.76118437 9.42578125 4.8203125 C10.22177734 5.35527344 11.01777344 5.89023437 11.83789062 6.44140625 C12.65451172 6.99699219 13.47113281 7.55257812 14.3125 8.125 C15.14845703 8.68832031 15.98441406 9.25164063 16.84570312 9.83203125 C18.89999052 11.21720789 20.95127038 12.60662219 23 14 C22.41972814 19.12064462 19.99031516 23.11772371 17.5625 27.5625 C16.64538339 29.272499 15.73007344 30.98346796 14.81640625 32.6953125 C14.11281982 34.01257324 14.11281982 34.01257324 13.39501953 35.35644531 C11.19886674 39.51814333 9.09468014 43.7240295 7 47.9375 C6.38233765 49.17790039 6.38233765 49.17790039 5.75219727 50.44335938 C4.49976915 52.96140163 3.24949872 55.48050297 2 58 C-3.34392482 68.7755234 -8.75476482 79.50187901 -14.38623047 90.13037109 C-18.04064783 97.04020163 -21.55093001 104.01566505 -25.01931763 111.02032471 C-29.60341817 120.27411659 -34.21210753 129.50723386 -39.0625 138.625 C-45.91797606 151.64172669 -52.42074889 164.84149778 -59 178 C-18.74 178 21.52 178 63 178 C60.74821242 188.13304411 60.74821242 188.13304411 59.30859375 192 C59.00373047 192.82371094 58.69886719 193.64742187 58.38476562 194.49609375 C58.07216797 195.32238281 57.75957031 196.14867187 57.4375 197 C57.12103516 197.85722656 56.80457031 198.71445313 56.47851562 199.59765625 C54.14207688 205.85792312 54.14207688 205.85792312 53 207 C46.54103856 206.512192 40.4332169 205.30733388 34.15234375 203.76953125 C33.20612656 203.54232895 32.25990936 203.31512665 31.28501892 203.08103943 C28.16776624 202.33058066 25.05261329 201.57178626 21.9375 200.8125 C19.75217115 200.28395114 17.56678594 199.75563527 15.38134766 199.22753906 C-10.44958508 192.96945042 -36.22698308 186.49171132 -62 180 C-61.41262002 176.84057569 -60.69295071 173.84101116 -59.65576172 170.80029297 C-59.24709366 169.59498428 -59.24709366 169.59498428 -58.83016968 168.36532593 C-58.53301056 167.49969025 -58.23585144 166.63405457 -57.9296875 165.7421875 C-57.61697906 164.82361969 -57.30427063 163.90505188 -56.98208618 162.95864868 C-55.94969453 159.92962694 -54.91248535 156.90228051 -53.875 153.875 C-53.14767516 151.74548072 -52.42046318 149.61592289 -51.69335938 147.48632812 C-46.71583718 132.92623476 -41.66618314 118.39194697 -36.57861328 103.86999512 C-31.5971827 89.64849662 -26.71505715 75.39518681 -21.875 61.125 C-16.83405897 46.26931052 -11.74930979 31.43045019 -6.5625 16.625 C-6.28283386 15.82370667 -6.00316772 15.02241333 -5.71502686 14.19683838 C-4.93945358 11.9764644 -4.1599411 9.75752026 -3.37890625 7.5390625 C-3.15055588 6.88425903 -2.92220551 6.22945557 -2.68693542 5.55480957 C-1.1151187 1.1151187 -1.1151187 1.1151187 0 0 Z " fill="#00625C" transform="translate(65,48)"/>
<path d="M0 0 C6.86295156 0.51763515 13.34929656 1.61467831 20.02026367 3.28491211 C20.9663298 3.51593124 21.91239594 3.74695038 22.88713074 3.98497009 C25.98239226 4.74254983 29.07516314 5.50980515 32.16796875 6.27734375 C34.33395354 6.80976946 36.50007838 7.34162573 38.66633606 7.87294006 C44.34831855 9.26834215 50.02818828 10.67216703 55.70770264 12.07757568 C60.34089954 13.22252703 64.97558653 14.3613737 69.61036205 15.49991512 C75.15091706 16.8611162 80.69078039 18.22512048 86.23046875 19.58984375 C87.28180685 19.8487483 88.33314495 20.10765285 89.41634178 20.374403 C92.40057359 21.11000192 95.3843279 21.84750428 98.36791992 22.58569336 C99.24341492 22.80134949 100.11890991 23.01700562 101.02093506 23.23919678 C103.34983462 23.81660434 105.67541397 24.4054969 108 25 C109.04724967 25.25919314 109.04724967 25.25919314 110.1156559 25.52362251 C111.76136008 25.95327708 113.3843454 26.46839344 115 27 C116 29 116 29 115.12646484 32.03637695 C114.66239392 33.35643625 114.18983808 34.67352934 113.7109375 35.98828125 C113.45642822 36.70572006 113.20191895 37.42315887 112.93969727 38.16233826 C112.09162221 40.54821768 111.23314042 42.93022436 110.375 45.3125 C109.77863371 46.98635961 109.18310543 48.66051801 108.58837891 50.33496094 C107.34881926 53.82236484 106.10563339 57.30844144 104.859375 60.79345703 C102.00811427 68.77080639 99.18768913 76.75898183 96.375 84.75 C96.10425659 85.51839203 95.83351318 86.28678406 95.55456543 87.07846069 C91.57377162 98.38543595 87.72803235 109.73112144 83.9682312 121.11325073 C74.4503655 149.90032894 64.27316763 178.47489936 54 207 C50.56952296 206.36789019 48.30341717 205.04224303 45.453125 203.05859375 C44.60878906 202.47529297 43.76445313 201.89199219 42.89453125 201.29101562 C42.02183594 200.67935547 41.14914063 200.06769531 40.25 199.4375 C39.36183594 198.82197266 38.47367188 198.20644531 37.55859375 197.57226562 C35.3686564 196.05343811 33.18269051 194.52921504 31 193 C31.62835768 188.11330604 33.69972916 184.20083362 35.90234375 179.8671875 C36.49186325 178.69041443 36.49186325 178.69041443 37.09329224 177.48986816 C38.36865494 174.94848929 39.65282563 172.41168273 40.9375 169.875 C41.82186412 168.11816784 42.70589655 166.36116868 43.58959961 164.60400391 C48.38697201 155.08456222 53.2638496 145.61442318 58.28515625 136.2109375 C62.74477106 127.74456841 66.94262834 119.14071023 71.20730591 110.57513428 C75.73419615 101.48633218 80.29003229 92.42571829 85.08496094 83.47460938 C90.46244094 73.35928166 95.49240618 63.06100275 100.58203125 52.79882812 C100.95954529 52.03957031 101.33705933 51.2803125 101.72601318 50.49804688 C102.42955181 49.08294344 103.13142458 47.66700975 103.83111572 46.25 C106.739858 40.4035834 109.86495191 34.74758817 113 29 C72.74 29 32.48 29 -9 29 C-8.30987039 24.16909272 -7.78141326 20.87394986 -6.15234375 16.50390625 C-5.61577148 15.04887695 -5.61577148 15.04887695 -5.06835938 13.56445312 C-4.50858398 12.07848633 -4.50858398 12.07848633 -3.9375 10.5625 C-3.37192383 9.03592773 -3.37192383 9.03592773 -2.79492188 7.47851562 C-1.86946342 4.98329218 -0.93649391 2.49109407 0 0 Z " fill="#00625C" transform="translate(9,0)"/>
<path d="M0 0 C5.72911322 4.96116825 8.34429322 12.12319142 9.01373291 19.56677246 C9.25765703 24.24462685 9.26315254 28.91998174 9.22705078 33.60302734 C9.21096973 36.08486902 9.22696153 38.56508275 9.24609375 41.046875 C9.26241889 53.50920795 8.41959899 63.84560515 -0.7265625 73.21484375 C-10.45718846 80.62066499 -22.45981658 80.81275375 -34.1640625 79.58984375 C-41.27673945 78.14457378 -47.43288675 75.20003576 -52.1640625 69.58984375 C-56.93726002 62.35499719 -58.48108024 54.24586161 -58.4296875 45.6875 C-58.43160095 44.96549911 -58.4335144 44.24349823 -58.43548584 43.49961853 C-58.43683649 41.98452401 -58.43321906 40.46941746 -58.42480469 38.9543457 C-58.41410453 36.66135102 -58.4247299 34.36914242 -58.4375 32.07617188 C-58.44994986 20.25354029 -57.97173162 9.92884314 -49.5625 0.86328125 C-36.53579163 -11.21170413 -13.79640056 -10.1854293 0 0 Z M-38.1640625 11.58984375 C-42.97093418 18.96038033 -42.34660219 27.42517095 -42.3515625 35.90234375 C-42.36380859 36.99224609 -42.37605469 38.08214844 -42.38867188 39.20507812 C-42.49268513 50.716349 -42.49268513 50.716349 -37.9765625 61.02734375 C-33.3505729 65.24213427 -28.23183883 66.02059306 -22.1484375 65.84375 C-17.79444987 65.28664528 -14.35082707 63.45586114 -10.8515625 60.90234375 C-5.77384716 53.9439931 -6.83089094 44.33414808 -6.8515625 36.15234375 C-6.83544922 34.88068359 -6.81933594 33.60902344 -6.80273438 32.29882812 C-6.79915045 25.38544413 -6.89643181 18.83897442 -10.1640625 12.58984375 C-14.58373017 8.17017608 -18.30801927 7.41224471 -24.4140625 7.27734375 C-30.3266872 7.33660168 -33.59165378 7.81263655 -38.1640625 11.58984375 Z " fill="#00625C" transform="translate(488.1640625,91.41015625)"/>
<path d="M0 0 C4.56965939 4.81016778 6.10650152 8.74553834 6.125 15.3125 C6.08375 16.859375 6.0425 18.40625 6 20 C0.72 20 -4.56 20 -10 20 C-10.390625 18.01432292 -10.78125 16.02864583 -11.171875 14.04296875 C-12.26793691 11.3390047 -13.49493717 10.45981655 -16 9 C-21.56730411 7.50402372 -27.12199863 7.50930304 -32.4296875 9.8515625 C-34.36325925 11.07639612 -34.36325925 11.07639612 -35.625 14.375 C-36.01690766 18.16344074 -35.96620615 19.78257175 -34 23 C-31.1324426 25.5199389 -28.80168418 26.50865394 -25.078125 27.24609375 C-24.13453125 27.44396484 -23.1909375 27.64183594 -22.21875 27.84570312 C-20.25535994 28.23708943 -18.29182043 28.62772683 -16.328125 29.01757812 C-7.25926506 30.9212994 -0.40630127 33.20856581 5 41 C8.54708532 47.9442938 8.17904912 58.15672038 6.34765625 65.6796875 C3.8049081 71.28901173 -0.59076628 75.24232113 -6.0078125 78.03515625 C-16.72132928 82.04805888 -31.49612549 81.7449567 -41.90234375 77.12890625 C-48.16299482 73.75958007 -51.19357927 69.66658689 -53.75 63.0625 C-54.15373601 59.73167792 -54 56.3552017 -54 53 C-48.72 53 -43.44 53 -38 53 C-37.38151042 55.24609375 -36.76302083 57.4921875 -36.14453125 59.73828125 C-34.58892652 62.81232609 -33.14552676 63.62954228 -30 65 C-26.59138187 65.47293435 -26.59138187 65.47293435 -23 65.375 C-21.80375 65.38273437 -20.6075 65.39046875 -19.375 65.3984375 C-15.77173805 64.97305241 -13.87619943 64.16772384 -11 62 C-9.42101947 58.84203893 -9.18071829 55.39329364 -10 52 C-14.1522575 46.01239017 -19.98723109 45.41866617 -26.8125 44 C-35.67741107 42.13712315 -42.84588583 40.15411417 -49.375 33.625 C-53.32697142 27.24104617 -53.79448332 20.32131462 -53 13 C-51.50186243 6.75626498 -49.08222653 2.0884276 -43.92578125 -1.8203125 C-30.87735142 -9.8134683 -12.08498282 -9.50904544 0 0 Z " fill="#00615B" transform="translate(413,91)"/>
<path d="M0 0 C19.47 0 38.94 0 59 0 C59 14.91196498 59 14.91196498 52.75 22.75 C51.45551215 24.48030642 50.16124494 26.21077792 48.8671875 27.94140625 C48.21459961 28.79105957 47.56201172 29.64071289 46.88964844 30.51611328 C44.11221776 34.16696337 41.49684688 37.92428546 38.875 41.6875 C37.908619 43.05674321 36.94117034 44.42523351 35.97265625 45.79296875 C33.85160865 48.79286812 31.73515462 51.79595423 29.62109375 54.80078125 C29.06760254 55.58686768 28.51411133 56.3729541 27.94384766 57.18286133 C26.87636424 58.69909675 25.80960337 60.21584118 24.74365234 61.7331543 C21.11232005 66.88767995 21.11232005 66.88767995 20 68 C39.8 68.495 39.8 68.495 60 69 C60 73.95 60 78.9 60 84 C39.54 84 19.08 84 -2 84 C-2 68.53487303 -2 68.53487303 5.51513672 59.81152344 C8.46736542 56.20982384 11.04514239 52.33123479 13.6875 48.5 C14.88351958 46.78213767 16.08014431 45.06469653 17.27734375 43.34765625 C18.18782471 42.03885498 18.18782471 42.03885498 19.11669922 40.70361328 C22.91781497 35.24683913 26.73994357 29.80474246 30.55737305 24.359375 C31.11078369 23.56917969 31.66419434 22.77898437 32.234375 21.96484375 C32.72131836 21.2699585 33.20826172 20.57507324 33.70996094 19.85913086 C34.82509166 18.25206794 35.91497356 16.62753967 37 15 C18.685 14.505 18.685 14.505 0 14 C0 9.38 0 4.76 0 0 Z " fill="#F5A705" transform="translate(291,86)"/>
<path d="M0 0 C19.47 0 38.94 0 59 0 C59 14.89069475 59 14.89069475 53.1875 21.8125 C51.98116185 23.35918845 50.7767676 24.9073948 49.57421875 26.45703125 C48.96884277 27.21838379 48.3634668 27.97973633 47.73974609 28.76416016 C45.16674189 32.07086413 42.83395873 35.52255813 40.5 39 C34.91782624 47.2093232 29.09428928 55.24006603 23.24584961 63.26098633 C22.13077799 64.81745412 21.06207007 66.4068949 20 68 C39.8 68.495 39.8 68.495 60 69 C60 73.95 60 78.9 60 84 C39.54 84 19.08 84 -2 84 C-2 67.99740025 -2 67.99740025 2.6875 62.8125 C3.7082799 61.55781224 4.72502685 60.29983548 5.73828125 59.0390625 C6.27404785 58.3884082 6.80981445 57.73775391 7.36181641 57.06738281 C10.24880149 53.42401624 12.7897582 49.54771466 15.375 45.6875 C21.3335291 36.89059325 27.51561819 28.26812461 33.78588867 19.69140625 C34.89127817 18.15146286 35.94850852 16.57723722 37 15 C18.685 14.505 18.685 14.505 0 14 C0 9.38 0 4.76 0 0 Z " fill="#F5A705" transform="translate(224,86)"/>
<path d="M0 0 C18.48 0 36.96 0 56 0 C56 4.62 56 9.24 56 14 C42.8 14 29.6 14 16 14 C16 20.6 16 27.2 16 34 C27.22 34 38.44 34 50 34 C50 38.62 50 43.24 50 48 C49 49 49 49 45.85717773 49.11352539 C44.46597304 49.11327441 43.07476209 49.10771709 41.68359375 49.09765625 C41.03588013 49.09664917 40.3881665 49.09564209 39.7208252 49.09460449 C37.29303221 49.08935843 34.86526439 49.07539725 32.4375 49.0625 C24.3009375 49.0315625 24.3009375 49.0315625 16 49 C16 60.55 16 72.1 16 84 C10.72 84 5.44 84 0 84 C0 56.28 0 28.56 0 0 Z " fill="#00625C" transform="translate(513,86)"/>
<path d="M0 0 C20.79 0 41.58 0 63 0 C63 4.62 63 9.24 63 14 C55.08 14 47.16 14 39 14 C39 37.1 39 60.2 39 84 C33.72 84 28.44 84 23 84 C23 60.9 23 37.8 23 14 C15.41 14 7.82 14 0 14 C0 9.38 0 4.76 0 0 Z " fill="#00625C" transform="translate(570,86)"/>
<path d="M0 0 C1.98 0 3.96 0 6 0 C6 84.15 6 168.3 6 255 C4.02 255 2.04 255 0 255 C0 170.85 0 86.7 0 0 Z " fill="#F5A705" transform="translate(172,0)"/>
</svg>
